<svg width="83" height="40" viewBox="0 0 83 40" fill="none" xmlns="http://www.w3.org/2000/svg">
<path d="M7.41653 19.1896C6.41383 19.1896 5.58401 18.9562 4.92706 18.4895C4.27012 18.0054 3.80335 17.3657 3.52674 16.5705L3.03403 18.9303H0L4.01945 0H7.49433L5.83468 7.72771C6.43976 6.93247 7.16585 6.30146 8.01296 5.83468C8.87736 5.35062 9.77633 5.10859 10.7099 5.10859C11.678 5.10859 12.4905 5.35926 13.1475 5.86061C13.8044 6.34468 14.2971 7.00162 14.6256 7.83144C14.9714 8.66126 15.1442 9.58617 15.1442 10.6062C15.1442 11.7817 14.9281 12.8882 14.4959 13.9254C14.0637 14.9454 13.4846 15.853 12.7585 16.6483C12.0324 17.4435 11.2026 18.0659 10.269 18.5154C9.35278 18.9649 8.40194 19.1896 7.41653 19.1896ZM7.15721 16.2334C7.71043 16.2334 8.24635 16.1037 8.76499 15.8444C9.28363 15.5678 9.74176 15.2047 10.1394 14.7553C10.5543 14.2885 10.8828 13.7612 11.1248 13.1734C11.3668 12.5683 11.4878 11.9373 11.4878 11.2804C11.4878 10.6926 11.3841 10.1567 11.1767 9.67261C10.9865 9.18854 10.7099 8.79956 10.3468 8.50567C9.98379 8.21177 9.5343 8.06483 8.99838 8.06483C8.5316 8.06483 8.06483 8.18584 7.59805 8.42787C7.13128 8.65262 6.69044 8.9638 6.27552 9.36142C5.8779 9.75905 5.5235 10.2085 5.21232 10.7099L4.51215 13.9514C4.58131 14.4009 4.7369 14.7985 4.97893 15.1442C5.22096 15.49 5.5235 15.758 5.88655 15.9481C6.26688 16.1383 6.69044 16.2334 7.15721 16.2334Z" fill="#AFFFC6"/>
<path d="M19.1197 19.1378C18.2553 19.1378 17.5811 18.9389 17.097 18.5413C16.6303 18.1264 16.3969 17.5386 16.3969 16.778C16.3969 16.6224 16.4055 16.4668 16.4228 16.3112C16.4574 16.1383 16.4833 15.9654 16.5006 15.7925L19.8718 0H23.3207L20.2348 14.5737C20.2175 14.6602 20.2002 14.7466 20.1829 14.8331C20.1829 14.9195 20.1829 15.0059 20.1829 15.0924C20.1829 15.8012 20.5373 16.1556 21.2461 16.1556C21.4363 16.1556 21.6524 16.121 21.8944 16.0519C22.1538 15.9827 22.3958 15.8963 22.6205 15.7925L22.5168 18.4376C22.0327 18.6623 21.4709 18.8352 20.8312 18.9562C20.1916 19.0773 19.6211 19.1378 19.1197 19.1378Z" fill="#AFFFC6"/>
<path d="M29.9512 19.1896C28.6373 19.1896 27.5568 18.9303 26.7097 18.4117C25.8799 17.893 25.2661 17.2015 24.8685 16.3371C24.4709 15.4554 24.2721 14.4873 24.2721 13.4327C24.2721 12.3263 24.4709 11.2717 24.8685 10.269C25.2834 9.26634 25.8626 8.37601 26.6059 7.59805C27.3493 6.82009 28.2224 6.21502 29.2251 5.78282C30.2451 5.33333 31.3601 5.10859 32.5703 5.10859C33.8842 5.10859 34.956 5.36791 35.7858 5.88655C36.633 6.40518 37.2553 7.0967 37.6529 7.9611C38.0506 8.8255 38.2494 9.79362 38.2494 10.8655C38.2494 11.9719 38.0419 13.0265 37.627 14.0292C37.2294 15.0319 36.6589 15.9222 35.9155 16.7002C35.1721 17.4781 34.2904 18.0918 33.2705 18.5413C32.2677 18.9735 31.1613 19.1896 29.9512 19.1896ZM30.4698 16.2334C31.0057 16.2334 31.5244 16.1124 32.0257 15.8703C32.5271 15.6283 32.9679 15.2825 33.3482 14.8331C33.7459 14.3836 34.0571 13.8563 34.2818 13.2512C34.5238 12.6461 34.6448 11.9892 34.6448 11.2804C34.6448 10.6407 34.5411 10.0789 34.3337 9.59481C34.1435 9.11075 33.8496 8.73906 33.452 8.47974C33.0716 8.20313 32.6049 8.06483 32.0517 8.06483C31.5157 8.06483 30.9971 8.18584 30.4957 8.42787C30.0117 8.6699 29.5708 9.01566 29.1732 9.46515C28.7756 9.91464 28.4558 10.4506 28.2137 11.0729C27.989 11.678 27.8766 12.335 27.8766 13.0438C27.8766 13.6661 27.9717 14.2193 28.1619 14.7034C28.3693 15.1875 28.6632 15.5678 29.0435 15.8444C29.4412 16.1037 29.9166 16.2334 30.4698 16.2334Z" fill="#AFFFC6"/>
<path d="M45.016 19.1896C43.8058 19.1896 42.7858 18.9303 41.956 18.4117C41.1262 17.893 40.5038 17.2015 40.0889 16.3371C39.674 15.4554 39.4666 14.4959 39.4666 13.4587C39.4666 12.3868 39.674 11.3495 40.0889 10.3468C40.5038 9.34413 41.083 8.45381 41.8264 7.67585C42.587 6.8806 43.486 6.25824 44.5233 5.80875C45.5606 5.34197 46.7016 5.10859 47.9463 5.10859C49.3985 5.10859 50.5481 5.42841 51.3952 6.06807C52.2596 6.70772 52.8301 7.54619 53.1067 8.58346L49.5281 9.62074C49.3553 9.11939 49.0787 8.73906 48.6983 8.47974C48.318 8.20313 47.8599 8.06483 47.3239 8.06483C46.788 8.06483 46.2607 8.19449 45.7421 8.4538C45.2407 8.69584 44.7826 9.05024 44.3677 9.51701C43.9701 9.9665 43.6502 10.4938 43.4082 11.0989C43.1835 11.7039 43.0711 12.3522 43.0711 13.0438C43.0711 13.6661 43.1748 14.2193 43.3823 14.7034C43.5897 15.1875 43.8836 15.5678 44.264 15.8444C44.6443 16.1037 45.0851 16.2334 45.5865 16.2334C45.9668 16.2334 46.3385 16.1642 46.7016 16.0259C47.0819 15.8876 47.4277 15.6975 47.7388 15.4554C48.05 15.2134 48.3007 14.9368 48.4909 14.6256L51.6546 15.6629C51.2051 16.3371 50.6432 16.9422 49.969 17.4781C49.2948 18.014 48.5341 18.4376 47.687 18.7488C46.8572 19.0427 45.9668 19.1896 45.016 19.1896Z" fill="#AFFFC6"/>
<path d="M59.3043 12.7844C60.7737 12.4905 61.9061 12.0151 62.7014 11.3582C63.4966 10.7012 63.8942 10.0011 63.8942 9.25769C63.8942 8.84278 63.7819 8.54889 63.5571 8.37601C63.3324 8.18584 63.0471 8.09076 62.7014 8.09076C62.079 8.09076 61.422 8.33279 60.7305 8.81685C60.039 9.30092 59.408 9.94921 58.8375 10.7617C58.2843 11.557 57.8607 12.4387 57.5668 13.4068L58.2151 9.46515C58.7165 8.61804 59.2697 7.87466 59.8748 7.23501C60.4971 6.57806 61.1627 6.06807 61.8715 5.70502C62.5976 5.34198 63.3669 5.16045 64.1795 5.16045C65.1303 5.16045 65.8391 5.42842 66.3059 5.96434C66.7727 6.48298 67.0061 7.20043 67.0061 8.11669C67.0061 9.24041 66.6689 10.2777 65.9947 11.2285C65.3378 12.1794 64.3696 12.9746 63.0903 13.6143L65.6317 18.9303H61.9493L59.3043 12.7844ZM57.0482 0H60.4971L56.4777 18.9303H53.0288L57.0482 0Z" fill="#AFFFC6"/>
<path d="M2.02277 40V21.5883H9.82827C10.6754 21.5883 11.4533 21.7612 12.1621 22.107C12.871 22.4527 13.4847 22.9195 14.0033 23.5073C14.5392 24.0951 14.9542 24.752 15.248 25.4781C15.5419 26.2042 15.6889 26.9476 15.6889 27.7083C15.6889 28.7456 15.4469 29.731 14.9628 30.6645C14.4787 31.5981 13.8131 32.3587 12.966 32.9465C12.1189 33.5343 11.1162 33.8282 9.95793 33.8282H5.60137V40H2.02277ZM5.60137 30.6905H9.75048C10.1827 30.6905 10.5717 30.5694 10.9174 30.3274C11.2632 30.0854 11.5398 29.7396 11.7472 29.2901C11.9547 28.8234 12.0584 28.2961 12.0584 27.7083C12.0584 27.0686 11.9374 26.5241 11.6954 26.0746C11.4706 25.6251 11.1681 25.288 10.7878 25.0632C10.4247 24.8385 10.0271 24.7261 9.59489 24.7261H5.60137V30.6905Z" fill="#AFFFC6"/>
<path d="M21.8422 21.5883H25.4727L32.2409 40H28.5586L26.8471 35.4101H20.416L18.7304 40H15.0481L21.8422 21.5883ZM26.1988 32.8947L23.6575 25.2966L21.0124 32.8947H26.1988Z" fill="#AFFFC6"/>
<path d="M34.2604 40V21.5883H42.403C43.2501 21.5883 44.0281 21.7612 44.7369 22.107C45.463 22.4527 46.0854 22.9195 46.604 23.5073C47.1399 24.0951 47.5462 24.752 47.8228 25.4781C48.1167 26.2042 48.2636 26.9476 48.2636 27.7083C48.2636 28.4862 48.1253 29.2383 47.8487 29.9644C47.5894 30.6732 47.2091 31.2955 46.7077 31.8315C46.2064 32.3674 45.6186 32.7823 44.9443 33.0762L49.1453 40H45.2037L41.4176 33.8282H37.839V40H34.2604ZM37.839 30.6905H42.3252C42.7747 30.6905 43.1723 30.5608 43.5181 30.3015C43.8639 30.0249 44.1405 29.6618 44.3479 29.2123C44.5554 28.7628 44.6591 28.2615 44.6591 27.7083C44.6591 27.1205 44.5381 26.6105 44.296 26.1783C44.054 25.7288 43.7428 25.3744 43.3625 25.1151C42.9995 24.8558 42.6018 24.7261 42.1696 24.7261H37.839V30.6905Z" fill="#AFFFC6"/>
<path d="M65.0734 24.7261H59.1868V40H55.6342V24.7261H49.7476V21.5883H65.0734V24.7261Z" fill="#AFFFC6"/>
<path d="M69.4336 21.5883L73.9717 30.2496L78.5876 21.5883H82.4514L75.761 33.5689V40H72.2083V33.517L65.5438 21.5883H69.4336Z" fill="#AFFFC6"/>
</svg>
